<svg width="92" height="90" viewBox="0 0 92 90" fill="none" xmlns="http://www.w3.org/2000/svg">
<g clip-path="url(#clip0_67_311)">
<path d="M56.2158 43.3151L47.1379 51.9802L8.80357 88.5661C7.79717 89.5289 6.50615 90.0103 5.21512 90.0103C3.80211 90.0103 2.3891 89.4367 1.36237 88.2998C-0.660574 86.0669 -0.396269 82.5743 1.93164 80.6692L47.1379 43.8272L52.119 39.7712L56.2158 43.3151Z" fill="url(#paint0_linear_67_311)"/>
<path d="M46.7414 52.4206L37.8058 60.9423L36.9824 52.185L41.8721 48.2007L46.7414 52.4206Z" fill="#3A81D6" fill-opacity="0.8"/>
<path d="M91.9782 29.9078C91.9782 46.4288 78.6817 59.8259 62.2948 59.8259C51.9666 59.8259 42.8684 54.5101 37.5518 46.4391C34.431 41.7071 32.6113 36.0225 32.6113 29.9078C32.6113 13.3868 45.9079 0 62.2948 0C69.6953 0 76.4554 2.72448 81.65 7.23114C87.973 12.7211 91.9782 20.8433 91.9782 29.9078Z" fill="url(#paint1_linear_67_311)"/>
<path d="M62.2946 53.2093C75.0671 53.2093 85.4213 42.7768 85.4213 29.9078C85.4213 17.0387 75.0671 6.60632 62.2946 6.60632C49.5221 6.60632 39.168 17.0387 39.168 29.9078C39.168 42.7768 49.5221 53.2093 62.2946 53.2093Z" fill="white"/>
<path opacity="0.06" d="M91.9782 29.9078C91.9782 46.4288 78.6816 59.8259 62.2947 59.8259C51.9665 59.8259 42.8683 54.5101 37.5518 46.4391C71.027 43.6941 79.8507 15.1178 81.6601 7.23114C87.9729 12.7211 91.9782 20.8433 91.9782 29.9078Z" fill="#1A6FB5" fill-opacity="0.5"/>
<path d="M62.2944 29.959C64.9782 29.959 67.1536 27.7672 67.1536 25.0632C67.1536 22.3592 64.9782 20.1673 62.2944 20.1673C59.6107 20.1673 57.4353 22.3592 57.4353 25.0632C57.4353 27.7672 59.6006 29.959 62.2944 29.959ZM62.2944 32.407C59.0516 32.407 52.5762 34.0458 52.5762 37.3028V38.5319C52.5762 39.2079 53.1251 39.761 53.796 39.761H70.8132C71.4841 39.761 72.0331 39.2079 72.0331 38.5319V37.3028C72.0127 34.056 65.5373 32.407 62.2944 32.407Z" fill="url(#paint2_linear_67_311)"/>
</g>
<defs>
<linearGradient id="paint0_linear_67_311" x1="5.6749" y1="84.3265" x2="53.9246" y2="40.7922" gradientUnits="userSpaceOnUse">
<stop stop-color="#67C3F3"/>
<stop offset="1" stop-color="#5A98F2"/>
</linearGradient>
<linearGradient id="paint1_linear_67_311" x1="50.0175" y1="2.11336" x2="72.782" y2="52.9053" gradientUnits="userSpaceOnUse">
<stop stop-color="#67C3F3"/>
<stop offset="1" stop-color="#5A98F2"/>
</linearGradient>
<linearGradient id="paint2_linear_67_311" x1="55.2685" y1="28.3947" x2="72.9194" y2="36.9391" gradientUnits="userSpaceOnUse">
<stop stop-color="#B0F4FF"/>
<stop offset="0.071077" stop-color="#A6F1FF"/>
<stop offset="0.2937" stop-color="#8BE8FD"/>
<stop offset="0.5209" stop-color="#78E1FD"/>
<stop offset="0.7536" stop-color="#6DDDFC"/>
<stop offset="1" stop-color="#69DCFC"/>
</linearGradient>
<clipPath id="clip0_67_311">
<rect width="91.978" height="90" fill="white"/>
</clipPath>
</defs>
</svg>
