<?xml version="1.0" encoding="UTF-8"?>
<svg version="1.1" xmlns="http://www.w3.org/2000/svg" width="698" height="243">
<path d="M0 0 C4.67264233 1.24039226 8.58425297 2.06264038 13.4140625 1.66015625 C19.00090149 1.54151681 23.273615 4.82263258 27.6640625 7.97265625 C29.6640625 9.97265625 29.6640625 9.97265625 29.6640625 12.53515625 C28.28993954 17.25870392 25.9610674 21.30502784 22.6640625 24.97265625 C20.84375 25.92578125 20.84375 25.92578125 18.6640625 25.97265625 C15.75390625 24.75 15.75390625 24.75 12.6015625 22.91015625 C11.55871094 22.32105469 10.51585938 21.73195313 9.44140625 21.125 C6.28460931 18.67859337 5.11046537 16.66123382 3.6640625 12.97265625 C3.6640625 12.31265625 3.6640625 11.65265625 3.6640625 10.97265625 C-11.91839458 6.90433002 -26.5079116 4.52746295 -41.3359375 12.62109375 C-54.33212732 21.40367515 -62.59232674 33.313874 -65.6484375 48.72265625 C-67.66824937 62.39522889 -65.07171593 76.81772464 -58.3359375 88.97265625 C-56.44407334 91.15855247 -54.93582076 92.68148484 -52.33203125 93.9453125 C-49.68322348 95.30859321 -48.3027253 97.12574191 -46.3984375 99.41015625 C-27.47316626 120.86290671 0.28464685 136.48301139 25.6640625 148.97265625 C26.94796875 149.61654297 26.94796875 149.61654297 28.2578125 150.2734375 C35.16198118 152.27968132 41.43523493 147.80841072 47.3515625 144.66015625 C48.36959961 144.12181152 49.38763672 143.5834668 50.43652344 143.02880859 C74.40610401 130.18395535 99.53693499 114.50390226 116.6640625 92.97265625 C117.9840625 93.30265625 119.3040625 93.63265625 120.6640625 93.97265625 C121.08365234 92.88984375 121.08365234 92.88984375 121.51171875 91.78515625 C122.60536987 89.11590607 123.83414611 86.56276576 125.1015625 83.97265625 C131.62044974 69.56552971 132.94927729 53.99064393 127.6640625 38.97265625 C122.19878273 25.47120186 113.73804422 15.69385222 100.171875 9.91015625 C88.00250754 5.64882892 77.97789435 7.13326611 65.6640625 9.97265625 C63.99877808 10.31282783 62.33263486 10.64899721 60.6640625 10.97265625 C60.6640625 11.83890625 60.6640625 12.70515625 60.6640625 13.59765625 C59.18716077 18.58219958 55.93868358 20.29316031 51.6640625 22.97265625 C50.6121875 23.63265625 49.5603125 24.29265625 48.4765625 24.97265625 C45.6640625 25.97265625 45.6640625 25.97265625 43.19921875 25.3359375 C40.13098822 23.68599535 39.05105358 22.14301933 37.2890625 19.16015625 C36.50402344 17.88205078 36.50402344 17.88205078 35.703125 16.578125 C34.45373696 13.445261 34.42657783 12.09974406 35.6640625 8.97265625 C37.66015625 7.20703125 37.66015625 7.20703125 40.1015625 5.72265625 C41.30619141 4.97242188 41.30619141 4.97242188 42.53515625 4.20703125 C45.95298673 2.2253167 47.54002354 1.94690304 51.4765625 2.16015625 C57.31583482 2.23698878 62.13551959 0.84652392 67.62109375 -1.0546875 C81.52615112 -5.49930789 96.57813986 -3.377209 109.4140625 3.16015625 C123.94837084 11.53051696 133.73738661 24.46462325 138.43286133 40.56396484 C143.52971546 59.62853372 140.35697529 77.05158298 131.15234375 94.1796875 C129.67771544 96.94703459 128.75832721 99.24478947 128.35546875 102.35546875 C127.47028712 105.70615627 125.95553282 107.32006548 123.6015625 109.84765625 C122.86808594 110.64945312 122.13460937 111.45125 121.37890625 112.27734375 C104.22102149 129.31179049 63.14800186 165.97265625 37.6640625 165.97265625 C39.74064691 175.31628916 39.74064691 175.31628916 43.6640625 183.97265625 C44.47230469 183.62332031 45.28054687 183.27398437 46.11328125 182.9140625 C47.18191406 182.45902344 48.25054687 182.00398437 49.3515625 181.53515625 C50.40730469 181.08269531 51.46304688 180.63023437 52.55078125 180.1640625 C58.04797498 178.06036854 64.07962723 176.63921992 69.78515625 178.76171875 C73.25400429 180.42931175 76.13287322 182.01712054 78.6640625 184.97265625 C80.39842441 190.17574197 80.43388162 194.30471481 78.1640625 199.22265625 C74.34324491 203.4255556 70.70739556 205.52684662 65.05078125 206.35546875 C58.28462507 206.6425758 52.62789642 205.170485 46.6640625 201.97265625 C46.0040625 201.31265625 45.3440625 200.65265625 44.6640625 199.97265625 C41.41849533 200.12286432 39.95692343 200.71726041 37.49609375 202.86328125 C36.49642578 204.03117187 36.49642578 204.03117187 35.4765625 205.22265625 C34.80238281 205.9909375 34.12820312 206.75921875 33.43359375 207.55078125 C31.63825507 210.00797768 30.51542617 212.05437078 29.6640625 214.97265625 C30.32490833 217.30764483 30.99217753 219.64082018 31.6640625 221.97265625 C31.82800494 227.61227604 30.39538928 231.65217261 26.6640625 235.97265625 C22.01693982 239.43521825 18.59715778 240.59413495 12.80078125 240.2890625 C6.43079423 239.34579203 3.31058382 235.86941345 -0.3359375 230.97265625 C-2.18460957 227.27531211 -1.67239175 223.01633785 -1.3359375 218.97265625 C0.45760085 213.69168221 3.27405452 211.17370374 7.6640625 207.97265625 C10.6640625 206.97265625 10.6640625 206.97265625 12.7578125 207.296875 C15.74878136 207.74843361 17.71723204 207.75091134 20.6640625 206.97265625 C24.87294472 203.37288215 28.20113472 199.27682772 31.6640625 194.97265625 C32.64489837 193.95385254 33.63393281 192.94159011 34.6640625 191.97265625 C33.77651611 189.16209269 32.85138543 186.40357303 31.67578125 183.69921875 C29.09441378 177.74799338 27.93977933 172.45200186 27.6640625 165.97265625 C26.890625 165.91464844 26.1171875 165.85664063 25.3203125 165.796875 C20.14245274 164.62964379 15.83409631 162.26211055 11.1640625 159.78515625 C10.15738525 159.25486816 9.15070801 158.72458008 8.11352539 158.17822266 C-15.4709008 145.54521825 -37.87175298 130.34272326 -57.0234375 111.59765625 C-57.78164795 110.86603271 -57.78164795 110.86603271 -58.55517578 110.11962891 C-62.30434527 106.36271053 -64.3359375 103.33604302 -64.3359375 97.97265625 C-65.55868032 95.4138999 -66.82395187 92.91497957 -68.1484375 90.41015625 C-76.71790947 73.74115714 -79.12125233 56.1620783 -73.3359375 37.97265625 C-69.50667451 27.85451003 -64.19996507 19.46357302 -56.3359375 11.97265625 C-55.77390625 11.40289062 -55.211875 10.833125 -54.6328125 10.24609375 C-39.55226046 -4.02918609 -18.9276212 -5.25119547 0 0 Z M51.6640625 191.97265625 C54.15018029 194.69554716 56.01862646 195.81508226 59.78515625 196.17578125 C64.73178809 196.3248071 64.73178809 196.3248071 69.2265625 194.47265625 C69.7009375 193.97765625 70.1753125 193.48265625 70.6640625 192.97265625 C69.3551053 189.85068147 69.3551053 189.85068147 66.6640625 187.97265625 C60.56193897 187.3624439 56.79341634 188.98830492 51.6640625 191.97265625 Z " fill="#5CB8E2" transform="translate(76.3359375,3.02734375)"/>
<path d="M0 0 C0.96576462 0.37354614 1.93152924 0.74709229 2.92655945 1.13195801 C4.95900991 1.91940676 6.99038913 2.7096254 9.02075195 3.50244141 C12.14090306 4.72038333 15.26446223 5.92923073 18.38867188 7.13671875 C20.36348676 7.90311649 22.33810328 8.67002563 24.3125 9.4375 C25.72019402 9.98283386 25.72019402 9.98283386 27.15632629 10.53918457 C28.0177977 10.87623413 28.8792691 11.21328369 29.7668457 11.56054688 C30.52818314 11.85731323 31.28952057 12.15407959 32.07392883 12.45983887 C33.82421875 13.21875 33.82421875 13.21875 34.82421875 14.21875 C35.74921717 44.77626827 31.4372974 77.60912373 10.671875 101.359375 C3.9264084 108.38761466 -4.37716627 114.99703855 -13.17578125 119.21875 C-17.79045268 119.25441207 -21.13091135 116.53823447 -24.73828125 113.90625 C-25.34816895 113.4625708 -25.95805664 113.0188916 -26.58642578 112.56176758 C-48.74872156 96.01334516 -58.41647938 73.5221947 -62.42578125 46.71875 C-63.7028149 35.60631685 -63.34943032 24.3857212 -63.17578125 13.21875 C-57.76823499 11.13701291 -52.36051438 9.05572957 -46.95263672 6.97485352 C-45.11567548 6.26794484 -43.27876067 5.5609155 -41.44189453 4.85375977 C-38.79081432 3.833173 -36.13956352 2.81303048 -33.48828125 1.79296875 C-32.67649414 1.48034592 -31.86470703 1.16772308 -31.02832031 0.84562683 C-29.4809758 0.2504828 -27.93203478 -0.34053092 -26.38134766 -0.9269104 C-24.91983897 -1.4930347 -23.46836629 -2.08583703 -22.02880859 -2.70565796 C-13.76632048 -6.16088694 -7.86508027 -3.08011258 0 0 Z " fill="#3D6B84" transform="translate(123.17578125,31.78125)"/>
<path d="M0 0 C1.37526855 0.00737183 1.37526855 0.00737183 2.77832031 0.01489258 C14.17986458 0.2115057 24.78898062 2.3581101 33.59375 10.02734375 C41.34764047 18.0605057 43.73483618 28.38379974 43.625 39.3125 C42.93633842 49.69161384 40.63498759 58.93364117 32.8125 66.1875 C22.61083665 74.32203457 12.30440831 75.64883704 -0.4375 75.5625 C-1.58283203 75.57023437 -2.72816406 75.57796875 -3.90820312 75.5859375 C-5.02259766 75.58335937 -6.13699219 75.58078125 -7.28515625 75.578125 C-8.28683838 75.57586914 -9.28852051 75.57361328 -10.32055664 75.57128906 C-13.375 75.3125 -13.375 75.3125 -20.375 73.3125 C-20.375 49.8825 -20.375 26.4525 -20.375 2.3125 C-12.99950995 0.83740199 -7.2787554 -0.04648594 0 0 Z M-5.375 14.3125 C-5.46811889 15.81668739 -5.49246028 17.32521356 -5.48852539 18.83227539 C-5.48844986 19.79319595 -5.48837433 20.75411652 -5.48829651 21.74415588 C-5.48313522 22.788936 -5.47797394 23.83371613 -5.47265625 24.91015625 C-5.4712413 25.97415146 -5.46982635 27.03814667 -5.46836853 28.13438416 C-5.46275064 31.54795083 -5.45019511 34.961453 -5.4375 38.375 C-5.43248731 40.68294176 -5.427924 42.99088455 -5.42382812 45.29882812 C-5.4127754 50.97007426 -5.39601987 56.64128253 -5.375 62.3125 C-3.13419948 62.3429922 -0.89327893 62.36474854 1.34765625 62.3828125 C2.59554932 62.39586426 3.84344238 62.40891602 5.12915039 62.42236328 C12.14827154 62.20177494 17.02046683 59.69932088 22.15234375 54.98828125 C27.02835805 49.43971326 27.89568999 42.18491982 27.5 35.0625 C26.81186316 27.37104651 24.68974804 21.96861497 18.8125 16.875 C13.72461281 14.38093765 -0.63026086 9.56776086 -5.375 14.3125 Z " fill="#FEFEFE" transform="translate(270.375,58.6875)"/>
<path d="M0 0 C1.30155029 0.00628418 1.30155029 0.00628418 2.62939453 0.01269531 C13.7392371 0.20727798 22.88129697 1.94962191 30.875 10.125 C34.79184278 15.6738606 35.95955614 21.58469361 35.125 28.3125 C33.09732816 36.30478315 29.16910909 40.98997851 22.125 45.3125 C22.90875 46.281875 23.6925 47.25125 24.5 48.25 C27.81301557 52.65940921 30.63172744 57.32204121 33.4375 62.0625 C33.88206543 62.80749756 34.32663086 63.55249512 34.78466797 64.32006836 C35.41139404 65.39140015 35.41139404 65.39140015 36.05078125 66.484375 C36.42630127 67.1247168 36.80182129 67.76505859 37.1887207 68.42480469 C38.15474608 70.37247307 38.67863873 72.19044497 39.125 74.3125 C33.48011287 75.25549739 27.66019692 76.18402125 22.125 74.3125 C17.83805 70.70335831 15.52661263 65.31031858 13.12011719 60.35205078 C11.77207774 57.58916521 10.26650355 54.97341691 8.625 52.375 C8.1815625 51.60285156 7.738125 50.83070312 7.28125 50.03515625 C4.27406519 47.31278609 4.27406519 47.31278609 -4.875 47.3125 C-4.875 56.2225 -4.875 65.1325 -4.875 74.3125 C-9.825 74.3125 -14.775 74.3125 -19.875 74.3125 C-19.875 50.5525 -19.875 26.7925 -19.875 2.3125 C-12.90122026 0.91774405 -6.96832029 -0.04640997 0 0 Z M-4.875 14.3125 C-4.96185603 15.87422745 -4.98202219 17.43979344 -4.97265625 19.00390625 C-4.96943359 19.94814453 -4.96621094 20.89238281 -4.96289062 21.86523438 C-4.95451172 22.85845703 -4.94613281 23.85167969 -4.9375 24.875 C-4.93298828 25.87208984 -4.92847656 26.86917969 -4.92382812 27.89648438 C-4.91200007 30.36854849 -4.89551849 32.84049518 -4.875 35.3125 C2.4432782 35.64683758 9.52842463 35.92904351 16.125 32.3125 C18.57943918 29.56055304 19.04560062 27.94769503 19.5 24.3125 C19.04560062 20.67730497 18.57943918 19.06444696 16.125 16.3125 C11.52944074 13.84176921 -0.67492789 10.11242789 -4.875 14.3125 Z " fill="#FEFEFE" transform="translate(434.875,58.6875)"/>
<path d="M0 0 C0.33 8.58 0.66 17.16 1 26 C2.65 25.67 4.3 25.34 6 25 C12.90260607 24.53202671 20.36617085 24.97180904 25.8984375 29.58203125 C32.48227212 36.9527144 33.16317334 44.85811357 33.09765625 54.4609375 C33.0962413 55.25150543 33.09482635 56.04207336 33.09336853 56.8565979 C33.08780504 59.36277166 33.07525944 61.86885358 33.0625 64.375 C33.05748028 66.08202995 33.0529182 67.78906132 33.04882812 69.49609375 C33.03784759 73.66409748 33.02060839 77.83203321 33 82 C28.05 82 23.1 82 18 82 C17.98541748 80.94087402 17.97083496 79.88174805 17.95581055 78.79052734 C17.89762673 74.84292658 17.82039593 70.89588429 17.73754883 66.94873047 C17.70439364 65.24374488 17.67633263 63.53865202 17.65356445 61.83349609 C17.61984432 59.37551366 17.56752206 56.91850594 17.51171875 54.4609375 C17.50532883 53.70444916 17.4989389 52.94796082 17.49235535 52.16854858 C17.36211944 47.42936629 16.58823065 44.1165759 14 40 C9.81537205 37.90768602 4.67855628 39 0 39 C0 53.19 0 67.38 0 82 C-4.95 82 -9.9 82 -15 82 C-15 55.6 -15 29.2 -15 2 C-4 0 -4 0 0 0 Z " fill="#FEFEFE" transform="translate(665,51)"/>
<path d="M0 0 C7.97852224 8.64339909 8.25 17.93025311 8.25 29.4375 C-3.63 29.4375 -15.51 29.4375 -27.75 29.4375 C-25.37845655 35.95096705 -25.37845655 35.95096705 -20.75 39.4375 C-13.01164903 42.01695032 -4.45419388 40.4919517 3.25 38.4375 C3.745 44.8725 3.745 44.8725 4.25 51.4375 C-8.09131657 54.96359045 -20.04058182 56.69288566 -31.78515625 50.3359375 C-37.68602651 46.45213754 -41.03665396 41.29088417 -42.75 34.4375 C-44.72762401 23.92784097 -43.58952036 13.70004222 -37.6640625 4.63671875 C-27.76427626 -6.7379336 -12.46175572 -7.08054302 0 0 Z M-25 11.1875 C-27.29430762 13.76913114 -27.29430762 13.76913114 -27.75 19.4375 C-20.49 19.4375 -13.23 19.4375 -5.75 19.4375 C-7.34916937 12.6368921 -7.34916937 12.6368921 -11.75 8.4375 C-17.26266746 6.79542884 -20.5324895 7.71276961 -25 11.1875 Z " fill="#FEFEFE" transform="translate(521.75,80.5625)"/>
<path d="M0 0 C4.18442231 3.27476529 6.49339641 6.94101848 8 12 C8.37998251 15.2265268 8.35134757 18.40725948 8.29296875 21.65234375 C8.28872391 22.55247696 8.28447906 23.45261017 8.28010559 24.38002014 C8.26341816 27.23282786 8.22578497 30.08490863 8.1875 32.9375 C8.1724403 34.88084912 8.15875415 36.82420939 8.14648438 38.76757812 C8.11354726 43.51199549 8.0618344 48.25587483 8 53 C-5.0909665 56.31217225 -18.0171817 57.83260002 -31 53 C-35.5179383 49.47600812 -37.4589754 46.29935457 -38.75 40.8125 C-39.10053467 35.46684624 -39.01068312 30.48689755 -35.515625 26.1640625 C-29.17454094 20.41219422 -22.88891495 19.70365886 -14.625 19.875 C-13.79355469 19.88402344 -12.96210937 19.89304687 -12.10546875 19.90234375 C-10.07018663 19.9257378 -8.03505436 19.96160275 -6 20 C-7.09786425 14.59212615 -7.09786425 14.59212615 -11 11 C-14.49204366 10.71855181 -14.49204366 10.71855181 -18.375 10.8125 C-19.68210937 10.81894531 -20.98921875 10.82539062 -22.3359375 10.83203125 C-25.36617548 10.97094408 -28.06184619 11.29098605 -31 12 C-32.45184478 7.46298506 -33.23509196 3.81938524 -33 -1 C-22.24850286 -3.41316168 -10.17989673 -5.30291692 0 0 Z M-23 33 C-24.24677006 35.89706707 -24.24677006 35.89706707 -24 39 C-22.28784522 42.16748634 -21.46264391 42.84578536 -18 44 C-13.99616868 44.13399703 -10.0072645 44.04308887 -6 44 C-6 39.71 -6 35.42 -6 31 C-11.33049549 28.33475225 -18.38229703 29.53672277 -23 33 Z " fill="#FEFEFE" transform="translate(576,79)"/>
<path d="M0 0 C4.67264233 1.24039226 8.58425297 2.06264038 13.4140625 1.66015625 C19.00090149 1.54151681 23.273615 4.82263258 27.6640625 7.97265625 C29.6640625 9.97265625 29.6640625 9.97265625 29.6640625 12.53515625 C28.28993954 17.25870392 25.9610674 21.30502784 22.6640625 24.97265625 C20.84375 25.92578125 20.84375 25.92578125 18.6640625 25.97265625 C15.75390625 24.75 15.75390625 24.75 12.6015625 22.91015625 C11.55871094 22.32105469 10.51585938 21.73195313 9.44140625 21.125 C6.28460931 18.67859337 5.11046537 16.66123382 3.6640625 12.97265625 C3.6640625 12.31265625 3.6640625 11.65265625 3.6640625 10.97265625 C-11.91839458 6.90433002 -26.5079116 4.52746295 -41.3359375 12.62109375 C-54.33212732 21.40367515 -62.59232674 33.313874 -65.6484375 48.72265625 C-67.70488744 62.64324043 -64.77522351 76.46709166 -58.3359375 88.97265625 C-57.78808594 89.6996875 -57.24023438 90.42671875 -56.67578125 91.17578125 C-55.3359375 92.97265625 -55.3359375 92.97265625 -55.3984375 95.03515625 C-56.58550693 97.48843307 -58.0714495 98.51169625 -60.3359375 99.97265625 C-63.74631315 98.93504755 -64.47522826 97.74380233 -66.37109375 94.62890625 C-67.0618528 93.25089624 -67.73695578 91.86495707 -68.3984375 90.47265625 C-68.74914307 89.75086182 -69.09984863 89.02906738 -69.46118164 88.28540039 C-77.0746424 72.28013447 -78.76816388 55.05194428 -73.3359375 37.97265625 C-69.50667451 27.85451003 -64.19996507 19.46357302 -56.3359375 11.97265625 C-55.77390625 11.40289062 -55.211875 10.833125 -54.6328125 10.24609375 C-39.55226046 -4.02918609 -18.9276212 -5.25119547 0 0 Z " fill="#468EAD" transform="translate(76.3359375,3.02734375)"/>
<path d="M0 0 C13.17696374 11.0329154 20.72613794 27.23354398 22.66162109 44.14355469 C23.98045582 61.15943489 18.82224476 77.02835161 9.4296875 91.1171875 C6.07372922 90.51790924 4.05167524 89.27096314 1.4296875 87.1171875 C2.88125835 83.33893609 4.58324853 79.74861542 6.3671875 76.1171875 C13.17451435 61.3208218 14.89879754 45.65771526 9.4296875 30.1171875 C3.96440773 16.61573311 -4.49633078 6.83838347 -18.0625 1.0546875 C-30.23186746 -3.20663983 -40.25648065 -1.72220264 -52.5703125 1.1171875 C-54.23559692 1.45735908 -55.90174014 1.79352846 -57.5703125 2.1171875 C-57.5703125 2.9834375 -57.5703125 3.8496875 -57.5703125 4.7421875 C-59.04721423 9.72673083 -62.29569142 11.43769156 -66.5703125 14.1171875 C-68.148125 15.1071875 -68.148125 15.1071875 -69.7578125 16.1171875 C-72.5703125 17.1171875 -72.5703125 17.1171875 -75.03515625 16.48046875 C-78.10338678 14.8305266 -79.18332142 13.28755058 -80.9453125 10.3046875 C-81.46867187 9.45261719 -81.99203125 8.60054687 -82.53125 7.72265625 C-83.78063804 4.58979225 -83.80779717 3.24427531 -82.5703125 0.1171875 C-80.57421875 -1.6484375 -80.57421875 -1.6484375 -78.1328125 -3.1328125 C-77.32972656 -3.63296875 -76.52664062 -4.133125 -75.69921875 -4.6484375 C-72.28138827 -6.63015205 -70.69435146 -6.90856571 -66.7578125 -6.6953125 C-60.91854018 -6.61847997 -56.09885541 -8.00894483 -50.61328125 -9.91015625 C-32.96030753 -15.55276274 -14.60250049 -10.69666449 0 0 Z " fill="#458EAD" transform="translate(194.5703125,11.8828125)"/>
<path d="M0 0 C0.99 0.33 1.98 0.66 3 1 C3 1.66 3 2.32 3 3 C5.93720508 4.52299523 8.9168649 5.80100302 12 7 C11.49856709 11.47309995 9.97713943 13.61116761 6.9375 16.875 C5.83728516 18.07769531 5.83728516 18.07769531 4.71484375 19.3046875 C-12.44304101 36.33913424 -53.51606064 73 -79 73 C-77.24889741 80.96229232 -77.24889741 80.96229232 -74.25 88.5 C-73 91 -73 91 -73.3125 93.375 C-73.539375 93.91125 -73.76625 94.4475 -74 95 C-75.80078125 94.83203125 -75.80078125 94.83203125 -78 94 C-79.66796875 91.63671875 -79.66796875 91.63671875 -81.1875 88.6875 C-81.69667969 87.72199219 -82.20585938 86.75648438 -82.73046875 85.76171875 C-84.55052785 81.80239019 -85.12552244 78.58150123 -85.09765625 74.234375 C-85.09443359 73.34492188 -85.09121094 72.45546875 -85.08789062 71.5390625 C-85.07532227 70.15847656 -85.07532227 70.15847656 -85.0625 68.75 C-85.05798828 67.81414062 -85.05347656 66.87828125 -85.04882812 65.9140625 C-85.03706918 63.60930959 -85.02063426 61.30468773 -85 59 C-84.20287598 58.63986816 -84.20287598 58.63986816 -83.38964844 58.27246094 C-53.09602982 44.48140458 -21.42840007 26.04047294 0 0 Z " fill="#31ADDB" transform="translate(193,96)"/>
<path d="M0 0 C-0.66 3.63 -1.32 7.26 -2 11 C-5.26787356 12.08929119 -5.85346111 11.86500792 -9 11 C-14.03357494 10.49332001 -17.88911848 10.46439641 -22.5 12.6875 C-26.87504358 16.73441532 -27.61071671 21.16075058 -28 27 C-27.54644838 31.88827855 -26.69169676 35.14868091 -23.5625 39 C-18.33116827 43.08299062 -12.13174115 42.42339397 -5.7890625 41.7734375 C-4.18827593 41.5447537 -2.59312546 41.2770653 -1 41 C1.42857143 49.42857143 1.42857143 49.42857143 0 54 C-11.8809029 57.16824077 -22.31663457 57.13719677 -33.25 51.25 C-39.77129603 45.91439416 -42.58853544 39.65043502 -43.75 31.375 C-44.46415967 22.41431731 -43.21742372 14.27627851 -37.76953125 6.97265625 C-27.54467285 -4.42591658 -13.75935366 -5.50374147 0 0 Z " fill="#FEFEFE" transform="translate(639,79)"/>
<path d="M0 0 C-0.99 4.29 -1.98 8.58 -3 13 C-5.97 12.505 -5.97 12.505 -9 12 C-12.96 12 -16.92 12 -21 12 C-21 26.19 -21 40.38 -21 55 C-25.95 55 -30.9 55 -36 55 C-36 37.51 -36 20.02 -36 2 C-22.88503915 -1.93448826 -13.13133518 -2.91807448 0 0 Z " fill="#FEFEFE" transform="translate(362,78)"/>
<path d="M0 0 C4.10751239 -0.09985537 8.21454209 -0.17192603 12.32299805 -0.21972656 C13.71667814 -0.23967995 15.1102763 -0.26685319 16.50366211 -0.30175781 C24.58354869 -0.49889893 32.04223286 -0.67170171 39 4 C42.36603858 7.44813709 43.2775372 10.24273791 43.5625 14.9375 C43.34361907 20.12810491 41.7022646 23.3977966 38 27 C35.1875 28.9375 35.1875 28.9375 33 30 C36.28964441 39.13419033 42.85966515 48.40196906 50 55 C50.99 55.33 51.98 55.66 53 56 C53 56.99 53 57.98 53 59 C51.47860832 58.9938777 49.95738569 58.94295316 48.4375 58.875 C47.16712891 58.84019531 47.16712891 58.84019531 45.87109375 58.8046875 C41.00970148 57.44217484 37.39165289 54.36572292 34.82836914 50.00830078 C34.15961288 48.60261805 33.49798923 47.19352149 32.84326172 45.78125 C31.04600972 42.02157931 29.27567709 38.65823971 26 36 C19.51373961 34.02792408 12.59920968 35.07739204 6 36 C6 32.04 6 28.08 6 24 C3.69 24 1.38 24 -1 24 C-1 23.01 -1 22.02 -1 21 C2.3 21 5.6 21 9 21 C9 24.96 9 28.92 9 33 C13.95 33 18.9 33 24 33 C24.66 31.68 25.32 30.36 26 29 C27.97485205 27.6296945 29.97386717 26.29327628 32 25 C33.54163175 21.9167365 33.29747535 19.39121901 33 16 C31.13875077 14.01760473 31.13875077 14.01760473 29 13 C29.04640625 13.59167969 29.0928125 14.18335937 29.140625 14.79296875 C29.33182539 18.97889146 29.40332849 21.3324218 27.1875 25 C24.14919866 27.77787551 21.77806468 28.12750926 17.8125 28.0625 C15.9253125 28.0315625 15.9253125 28.0315625 14 28 C14 25.03 14 22.06 14 19 C11.36 19 8.72 19 6 19 C6 18.01 6 17.02 6 16 C9.63 16 13.26 16 17 16 C17 18.97 17 21.94 17 25 C20.96 24.505 20.96 24.505 25 24 C25.08086147 22.20906809 25.13912702 20.41710372 25.1875 18.625 C25.22230469 17.62726563 25.25710937 16.62953125 25.29296875 15.6015625 C25.19628906 14.74304688 25.09960938 13.88453125 25 13 C20.85987331 10.23991554 16.80542256 10.67529407 11.98046875 10.69726562 C8.0980972 10.58520462 6.18020063 10.13646493 3.0546875 7.76953125 C0.96101552 4.94745248 0.54001779 3.38167516 0 0 Z " fill="#F3F5F7" transform="translate(83,56)"/>
<path d="M0 0 C5.42875447 2.88265399 9.96820988 5.93641976 12.75 11.5 C13.25082483 18.51154763 12.78073442 23.46441277 8 29 C3.35287732 32.462562 -0.06690472 33.6214787 -5.86328125 33.31640625 C-12.23326827 32.37313578 -15.35347868 28.8967572 -19 24 C-20.84867207 20.30265586 -20.33645425 16.0436816 -20 12 C-18.20646165 6.71902596 -15.39000798 4.20104749 -11 1 C-7.12130935 -0.29289688 -3.98689857 -0.89607818 0 0 Z " fill="#458DAC" transform="translate(95,210)"/>
<path d="M0 0 C3.1842015 2.84545666 4.67766837 5.01285939 6 9.0625 C6 12.70584892 5.11048392 14.059909 3 17 C0.66015625 18.765625 0.66015625 18.765625 -1.9375 20.25 C-3.21947266 21.00023437 -3.21947266 21.00023437 -4.52734375 21.765625 C-6.75957498 22.8799774 -8.52347021 23.7265827 -11 24 C-15.20655469 20.63475625 -17.76052207 16.82349092 -20 12 C-19.87890625 9.484375 -19.87890625 9.484375 -19 7 C-17.00390625 5.234375 -17.00390625 5.234375 -14.5625 3.75 C-13.75941406 3.24984375 -12.95632812 2.7496875 -12.12890625 2.234375 C-8.12301911 -0.08830452 -4.6130286 -0.92790805 0 0 Z " fill="#70C6EB" transform="translate(131,5)"/>
<path d="M0 0 C6.22821484 0.36292229 12.06109432 4.37359432 16.375 8.6875 C16.375 14.48885884 13.16549134 19.47091127 9.375 23.6875 C7.5546875 24.640625 7.5546875 24.640625 5.375 24.6875 C2.46484375 23.46484375 2.46484375 23.46484375 -0.6875 21.625 C-1.73035156 21.03589844 -2.77320312 20.44679688 -3.84765625 19.83984375 C-7.02242809 17.37950721 -8.23510172 15.4302975 -9.625 11.6875 C-8.52500799 5.69865463 -6.21609187 1.17891398 0 0 Z " fill="#70C6EB" transform="translate(89.625,4.3125)"/>
<path d="M0 0 C3.37483413 -0.08767555 6.74937215 -0.14061628 10.125 -0.1875 C11.55199219 -0.22520508 11.55199219 -0.22520508 13.0078125 -0.26367188 C18.44641524 -0.32032399 22.31749434 -0.10666241 27 3 C30 6.3 30 6.3 30 9 C28.35 9.33 26.7 9.66 25 10 C25.04640625 10.59167969 25.0928125 11.18335937 25.140625 11.79296875 C25.33182539 15.97889146 25.40332849 18.3324218 23.1875 22 C20.14919866 24.77787551 17.77806468 25.12750926 13.8125 25.0625 C11.9253125 25.0315625 11.9253125 25.0315625 10 25 C10 22.03 10 19.06 10 16 C7.36 16 4.72 16 2 16 C2 15.01 2 14.02 2 13 C5.63 13 9.26 13 13 13 C13 15.97 13 18.94 13 22 C16.96 21.505 16.96 21.505 21 21 C21.08114106 19.22992286 21.13925505 17.45877902 21.1875 15.6875 C21.22230469 14.70136719 21.25710937 13.71523437 21.29296875 12.69921875 C21.19686707 10.0318319 21.19686707 10.0318319 19.88671875 8.171875 C16.37663933 5.99170145 12.25103445 6.5732937 8.2265625 6.50390625 C4.3974601 5.90589873 2.71352268 4.71860419 0 2 C0 1.34 0 0.68 0 0 Z " fill="#E2E8EB" transform="translate(87,59)"/>
<path d="M0 0 C3.15762995 1.45736767 5.3106509 2.60618449 6.890625 5.80078125 C8.36265608 10.66037103 7.9582915 14.24414922 6 19 C4.04196922 21.55395319 3.13328122 21.95557293 0 23 C-5.85159247 23.66244443 -5.85159247 23.66244443 -8.75390625 21.98828125 C-11.45293581 19.82255391 -12.89643164 18.31070508 -14 15 C-14.36945059 10.01241703 -14.18227193 6.95040654 -11 3 C-7.33060635 0.12398876 -4.62619262 -0.66088466 0 0 Z M-8 7 C-9.15925297 10.72617026 -9.32738782 12.34522437 -7.5625 15.875 C-7.046875 16.57625 -6.53125 17.2775 -6 18 C-3.6568787 17.74438677 -1.32156597 17.40729228 1 17 C2.52491998 13.95016004 2.23562548 11.3576631 2 8 C0.89350331 5.97521537 0.89350331 5.97521537 -1 5 C-5.04622502 4.63019987 -5.04622502 4.63019987 -8 7 Z " fill="#FEFEFE" transform="translate(493,156)"/>
<path d="M0 0 C2.4375 1.5 2.4375 1.5 4 4 C4.55313975 7.10214456 4.5811224 9.90068054 4 13 C2.12379387 15.50160818 0.76108697 16.61945652 -2 18 C-6.6478538 18.41314256 -9.24440152 17.78987316 -13 15 C-14.72515631 11.54968739 -14.49677924 7.77283696 -14 4 C-10.14213247 -1.3211966 -6.12903666 -1.39785047 0 0 Z " fill="#FEFEFE" transform="translate(374,117)"/>
<path d="M0 0 C1.65 0 3.3 0 5 0 C5 2.64 5 5.28 5 8 C7.64 8 10.28 8 13 8 C13 5.36 13 2.72 13 0 C14.65 0 16.3 0 18 0 C18 6.93 18 13.86 18 21 C16.35 21 14.7 21 13 21 C13 18.03 13 15.06 13 12 C10.36 12 7.72 12 5 12 C5 14.97 5 17.94 5 21 C3.35 21 1.7 21 0 21 C0 14.07 0 7.14 0 0 Z " fill="#FEFEFE" transform="translate(371,157)"/>
<path d="M0 0 C3.76991795 0.70685962 5.40418092 1.74418215 8 4.5625 C9.23674251 8.19543114 9.34458203 9.80441953 7.75 13.3125 C5.47164688 16.24181116 3.81463875 17.43853323 0.125 18 C-3 17.5625 -3 17.5625 -5.875 15.5 C-8 12.5625 -8 12.5625 -8.625 9.0625 C-7.67703424 3.75389177 -5.38444917 1.00958422 0 0 Z " fill="#3683A1" transform="translate(91,217.4375)"/>
<path d="M0 0 C5.99319103 1.94223324 11.88968571 4.05451564 17.75390625 6.35546875 C18.93339088 6.81521843 18.93339088 6.81521843 20.13670349 7.28425598 C22.61278003 8.2499414 25.08765529 9.21866264 27.5625 10.1875 C29.25578036 10.84850972 30.94913907 11.5093188 32.64257812 12.16992188 C36.76262667 13.77763331 40.88160186 15.38806577 45 17 C45.26749877 44.59200229 42.54459916 73.95641986 24 96 C23.34 96 22.68 96 22 96 C23.50775163 92.7913857 25.33849118 89.94131691 27.3125 87 C40.61825107 66.07518815 41.21824877 41.9735859 43 18 C42.47680176 17.86102295 41.95360352 17.7220459 41.41455078 17.57885742 C32.66427952 15.11197716 24.30700527 11.67932068 15.875 8.3125 C14.33088028 7.69948901 12.78661053 7.08685579 11.2421875 6.47460938 C7.49304831 4.98742121 3.74597463 3.49514024 0 2 C0 1.34 0 0.68 0 0 Z " fill="#3B3534" transform="translate(108,32)"/>
<path d="M0 0 C1.75381398 3.19813137 1.7127362 6.39075707 1.0625 9.9375 C-0.5 11.9375 -0.5 11.9375 -2.9375 12.9375 C-6.6875 13.125 -6.6875 13.125 -9.9375 12.9375 C-9.9375 15.2475 -9.9375 17.5575 -9.9375 19.9375 C-11.5875 19.9375 -13.2375 19.9375 -14.9375 19.9375 C-14.9375 13.0075 -14.9375 6.0775 -14.9375 -1.0625 C-4.96757519 -2.72415414 -4.96757519 -2.72415414 0 0 Z M-9.9375 2.9375 C-9.9375 4.9175 -9.9375 6.8975 -9.9375 8.9375 C-7.9575 8.6075 -5.9775 8.2775 -3.9375 7.9375 C-3.9375 6.6175 -3.9375 5.2975 -3.9375 3.9375 C-6.9075 3.4425 -6.9075 3.4425 -9.9375 2.9375 Z " fill="#FEFEFE" transform="translate(555.9375,158.0625)"/>
<path d="M0 0 C0.33 2.31 0.66 4.62 1 7 C2.134375 7.28875 3.26875 7.5775 4.4375 7.875 C5.613125 8.24625 6.78875 8.6175 8 9 C9.44207941 11.88415883 9.09394887 14.41721528 9.0625 17.625 C9.05347656 18.81351563 9.04445313 20.00203125 9.03515625 21.2265625 C9.02355469 22.14179688 9.01195312 23.05703125 9 24 C7.35 24 5.7 24 4 24 C3.67 20.37 3.34 16.74 3 13 C2.01 12.67 1.02 12.34 0 12 C0 15.96 0 19.92 0 24 C-1.65 24 -3.3 24 -5 24 C-5 16.41 -5 8.82 -5 1 C-3 0 -3 0 0 0 Z " fill="#FEFEFE" transform="translate(453,154)"/>
<path d="M0 0 C2 2 2 2 2.125 5.625 C2.08375 6.73875 2.0425 7.8525 2 9 C-2.455 9.495 -2.455 9.495 -7 10 C-4.36 10.33 -1.72 10.66 1 11 C1 12.32 1 13.64 1 15 C-2.13871188 16.56935594 -4.53855822 16.35201103 -8 16 C-10.93052231 14.00475077 -12.64521503 12.57163515 -13.4453125 9.02734375 C-13.64297244 5.50240818 -13.298885 3.40194879 -11.1875 0.5625 C-6.90379445 -2.49728968 -4.69755069 -1.89900985 0 0 Z M-7 3 C-7.33 3.66 -7.66 4.32 -8 5 C-6.35 5 -4.7 5 -3 5 C-3 4.34 -3 3.68 -3 3 C-4.32 3 -5.64 3 -7 3 Z " fill="#FEFEFE" transform="translate(405,163)"/>
<path d="M0 0 C1.65 0 3.3 0 5 0 C5.99 2.64 6.98 5.28 8 8 C8.99 5.36 9.98 2.72 11 0 C12.65 0 14.3 0 16 0 C14.78408172 7.29550968 12.39525194 16.60474806 7 22 C4.66702567 22.04092937 2.33294775 22.04241723 0 22 C0 20.35 0 18.7 0 17 C1.65 16.67 3.3 16.34 5 16 C4.6390625 15.09636719 4.278125 14.19273437 3.90625 13.26171875 C3.4421875 12.08222656 2.978125 10.90273437 2.5 9.6875 C2.0359375 8.51574219 1.571875 7.34398437 1.09375 6.13671875 C0 3 0 3 0 0 Z " fill="#FEFEFE" transform="translate(629,162)"/>
<path d="M0 0 C2.375 1.5625 2.375 1.5625 4 4 C4.7152453 9.00671711 4.81148802 10.85436985 1.875 15 C-1 17 -1 17 -4 17.625 C-8.10703441 16.76936783 -9.55401113 15.38121991 -12 12 C-12.50951861 7.85106275 -12.54666957 4.43800392 -10 1 C-6.60979367 -1.54265475 -3.96166205 -1.15548476 0 0 Z M-6 4 C-6.33 6.31 -6.66 8.62 -7 11 C-5.34385343 11.38218767 -3.67542976 11.71395102 -2 12 C-1.67 11.67 -1.34 11.34 -1 11 C-1.28730055 8.66055264 -1.61936779 6.3260857 -2 4 C-3.32 4 -4.64 4 -6 4 Z " fill="#FEFEFE" transform="translate(591,162)"/>
<path d="M0 0 C2.375 1.5625 2.375 1.5625 4 4 C4.7152453 9.00671711 4.81148802 10.85436985 1.875 15 C-1 17 -1 17 -4 17.625 C-8.10703441 16.76936783 -9.55401113 15.38121991 -12 12 C-12.50951861 7.85106275 -12.54666957 4.43800392 -10 1 C-6.60979367 -1.54265475 -3.96166205 -1.15548476 0 0 Z M-6 4 C-6.33 6.31 -6.66 8.62 -7 11 C-5.34385343 11.38218767 -3.67542976 11.71395102 -2 12 C-1.67 11.67 -1.34 11.34 -1 11 C-1.28730055 8.66055264 -1.61936779 6.3260857 -2 4 C-3.32 4 -4.64 4 -6 4 Z " fill="#FEFEFE" transform="translate(327,162)"/>
<path d="M0 0 C1.09506492 3.28519475 1.09960608 5.73663415 1.0625 9.1875 C1.05347656 10.27417969 1.04445313 11.36085937 1.03515625 12.48046875 C1.02355469 13.31191406 1.01195312 14.14335937 1 15 C-3.25800538 16.41933513 -7.22911538 16.72651677 -11.4375 15 C-11.953125 14.67 -12.46875 14.34 -13 14 C-13.1875 10.625 -13.1875 10.625 -13 7 C-10.08235 5.0549 -8.37462715 4.54723683 -5 4 C-7.31 3.34 -9.62 2.68 -12 2 C-12 1.01 -12 0.02 -12 -1 C-7.84708071 -2.43754898 -3.91862041 -1.95931021 0 0 Z M-8 9 C-7.67 9.99 -7.34 10.98 -7 12 C-6.01 12 -5.02 12 -4 12 C-4 11.01 -4 10.02 -4 9 C-5.32 9 -6.64 9 -8 9 Z " fill="#FEFEFE" transform="translate(422,163)"/>
<path d="M0 0 C1.98 0 3.96 0 6 0 C7.32 2.31 8.64 4.62 10 7 C11.32 4.69 12.64 2.38 14 0 C15.65 0 17.3 0 19 0 C18.36609279 3.19835003 17.20910939 5.48760226 15.5 8.25 C12.99189044 12.60847281 12.27237528 16.00645312 12 21 C10.35 21 8.7 21 7 21 C6.95875 19.72125 6.9175 18.4425 6.875 17.125 C6.33832637 11.91513749 4.13965814 8.36998012 1.27734375 4.06640625 C0 2 0 2 0 0 Z " fill="#FEFEFE" transform="translate(297,157)"/>
<path d="M0 0 C1.32 0 2.64 0 4 0 C4.33 3.96 4.66 7.92 5 12 C6.32 12 7.64 12 9 12 C9 8.04 9 4.08 9 0 C10.65 0 12.3 0 14 0 C14 5.28 14 10.56 14 16 C9.80755846 17.39748051 5.87040974 17.9037555 1.79296875 15.93359375 C-0.90140729 13.0278941 -0.3921567 10.68627004 -0.25 6.8125 C-0.21390625 5.54019531 -0.1778125 4.26789063 -0.140625 2.95703125 C-0.09421875 1.98121094 -0.0478125 1.00539062 0 0 Z " fill="#FEFEFE" transform="translate(504,162)"/>
<path d="M0 0 C1.32 0 2.64 0 4 0 C4.33 3.96 4.66 7.92 5 12 C6.32 12 7.64 12 9 12 C9 8.04 9 4.08 9 0 C10.65 0 12.3 0 14 0 C14 5.28 14 10.56 14 16 C9.80755846 17.39748051 5.87040974 17.9037555 1.79296875 15.93359375 C-0.90140729 13.0278941 -0.3921567 10.68627004 -0.25 6.8125 C-0.21390625 5.54019531 -0.1778125 4.26789063 -0.140625 2.95703125 C-0.09421875 1.98121094 -0.0478125 1.00539062 0 0 Z " fill="#FEFEFE" transform="translate(334,162)"/>
<path d="M0 0 C0.99 0 1.98 0 3 0 C3 1.65 3 3.3 3 5 C4.98 5 6.96 5 9 5 C9 6.32 9 7.64 9 9 C7.02 9 5.04 9 3 9 C3.33 11.64 3.66 14.28 4 17 C5.65 17 7.3 17 9 17 C9.33 18.32 9.66 19.64 10 21 C7.20129973 22.39935013 5.09501208 22.25265405 2 22 C-0.05863891 20.45572003 -0.89559455 19.57909271 -1.35644531 17.02294922 C-1.34709961 16.29092285 -1.33775391 15.55889648 -1.328125 14.8046875 C-1.32296875 14.00675781 -1.3178125 13.20882812 -1.3125 12.38671875 C-1.291875 11.55785156 -1.27125 10.72898438 -1.25 9.875 C-1.24484375 9.03839844 -1.2396875 8.20179688 -1.234375 7.33984375 C-1.1541718 1.1541718 -1.1541718 1.1541718 0 0 Z " fill="#FEFEFE" transform="translate(619,157)"/>
<path d="M0 0 C0.99 0 1.98 0 3 0 C3 1.65 3 3.3 3 5 C4.98 5 6.96 5 9 5 C9 6.32 9 7.64 9 9 C7.02 9 5.04 9 3 9 C3.33 11.64 3.66 14.28 4 17 C5.65 17 7.3 17 9 17 C9.33 18.32 9.66 19.64 10 21 C7.20129973 22.39935013 5.09501208 22.25265405 2 22 C-0.05863891 20.45572003 -0.89559455 19.57909271 -1.35644531 17.02294922 C-1.34709961 16.29092285 -1.33775391 15.55889648 -1.328125 14.8046875 C-1.32296875 14.00675781 -1.3178125 13.20882812 -1.3125 12.38671875 C-1.291875 11.55785156 -1.27125 10.72898438 -1.25 9.875 C-1.24484375 9.03839844 -1.2396875 8.20179688 -1.234375 7.33984375 C-1.1541718 1.1541718 -1.1541718 1.1541718 0 0 Z " fill="#FEFEFE" transform="translate(436,157)"/>
<path d="M0 0 C3.37483413 -0.08767555 6.74937215 -0.14061628 10.125 -0.1875 C11.55199219 -0.22520508 11.55199219 -0.22520508 13.0078125 -0.26367188 C18.41052142 -0.31995009 22.3887376 -0.17398581 27 3 C28.375 5.6875 28.375 5.6875 29 8 C27.86046875 7.67902344 26.7209375 7.35804687 25.546875 7.02734375 C20.37407476 5.73186492 15.31185894 5.61841221 10.00390625 5.52148438 C5.8002657 5.36677229 2.95448218 5.16440591 0 2 C0 1.34 0 0.68 0 0 Z " fill="#48748B" transform="translate(87,59)"/>
<path d="M0 0 C0.02505615 0.58491211 0.0501123 1.16982422 0.07592773 1.77246094 C0.19222962 4.43184471 0.31480067 7.09090403 0.4375 9.75 C0.47681641 10.67039063 0.51613281 11.59078125 0.55664062 12.5390625 C0.59853516 13.42851562 0.64042969 14.31796875 0.68359375 15.234375 C0.72025146 16.05131836 0.75690918 16.86826172 0.79467773 17.70996094 C0.99134275 19.9034423 1.40300594 21.88396413 2 24 C0.1875 24.625 0.1875 24.625 -2 25 C-2.99 24.34 -3.98 23.68 -5 23 C-5.34057617 20.75341797 -5.34057617 20.75341797 -5.29296875 17.9921875 C-5.28330078 17.00605469 -5.27363281 16.01992187 -5.26367188 15.00390625 C-5.23853516 13.97136719 -5.21339844 12.93882812 -5.1875 11.875 C-5.17396484 10.83472656 -5.16042969 9.79445312 -5.14648438 8.72265625 C-5.11105228 6.14792373 -5.06165221 3.5742167 -5 1 C-3 0 -3 0 0 0 Z " fill="#FEFEFE" transform="translate(431,154)"/>
<path d="M0 0 C4.875 0.875 4.875 0.875 6 2 C6.4375 4.8125 6.4375 4.8125 6 8 C2.50343986 11.59106177 -0.34647676 12.30443419 -5.3125 12.5625 C-11.16618228 12.37806891 -15.24964574 10.28419554 -20 7 C-20 6.34 -20 5.68 -20 5 C-17.875 4.3125 -17.875 4.3125 -15 4 C-13.63875 4.7115625 -13.63875 4.7115625 -12.25 5.4375 C-8.13199905 7.41730815 -4.51005003 7.661474 0 7 C0.99 6.34 1.98 5.68 3 5 C2.2236068 1.9254644 2.2236068 1.9254644 0 0 Z " fill="#34ADDB" transform="translate(143,191)"/>
<path d="M0 0 C0 1.32 0 2.64 0 4 C-1.65 4 -3.3 4 -5 4 C-5 7.96 -5 11.92 -5 16 C-6.65 16 -8.3 16 -10 16 C-10 10.72 -10 5.44 -10 0 C-5.65055731 -0.86988854 -4.02871475 -1.03595522 0 0 Z " fill="#FEFEFE" transform="translate(608,162)"/>
<path d="M0 0 C0 1.32 0 2.64 0 4 C-1.65 4 -3.3 4 -5 4 C-5 7.96 -5 11.92 -5 16 C-6.65 16 -8.3 16 -10 16 C-10 10.72 -10 5.44 -10 0 C-5.65055731 -0.86988854 -4.02871475 -1.03595522 0 0 Z " fill="#FEFEFE" transform="translate(570,162)"/>
<path d="M0 0 C0 1.32 0 2.64 0 4 C-1.65 4 -3.3 4 -5 4 C-5 7.96 -5 11.92 -5 16 C-6.65 16 -8.3 16 -10 16 C-10 10.72 -10 5.44 -10 0 C-5.65055731 -0.86988854 -4.02871475 -1.03595522 0 0 Z " fill="#FEFEFE" transform="translate(532,162)"/>
<path d="M0 0 C0 1.32 0 2.64 0 4 C-1.65 4 -3.3 4 -5 4 C-5 7.96 -5 11.92 -5 16 C-6.65 16 -8.3 16 -10 16 C-10 10.72 -10 5.44 -10 0 C-5.65055731 -0.86988854 -4.02871475 -1.03595522 0 0 Z " fill="#FEFEFE" transform="translate(362,162)"/>
<path d="M0 0 C3.63 0 7.26 0 11 0 C11 2.97 11 5.94 11 9 C13.64 9 16.28 9 19 9 C19 9.66 19 10.32 19 11 C16.24921116 11.91692961 14.64051087 12.10886083 11.8125 12.0625 C9.9253125 12.0315625 9.9253125 12.0315625 8 12 C8 9.03 8 6.06 8 3 C5.36 3 2.72 3 0 3 C0 2.01 0 1.02 0 0 Z " fill="#D3DCE1" transform="translate(89,72)"/>
<path d="M0 0 C1.65 0 3.3 0 5 0 C5 5.28 5 10.56 5 16 C3.35 16 1.7 16 0 16 C0 10.72 0 5.44 0 0 Z " fill="#FEFEFE" transform="translate(610,162)"/>
<path d="M0 0 C1.65 0 3.3 0 5 0 C5 5.28 5 10.56 5 16 C3.35 16 1.7 16 0 16 C0 10.72 0 5.44 0 0 Z " fill="#FEFEFE" transform="translate(572,162)"/>
<path d="M0 0 C3.3 0 6.6 0 10 0 C10.05389087 1.95803507 10.09274217 3.91648909 10.125 5.875 C10.14820312 6.96554688 10.17140625 8.05609375 10.1953125 9.1796875 C10 12 10 12 8 14 C13.28 14 18.56 14 24 14 C24 14.33 24 14.66 24 15 C18.39 15 12.78 15 7 15 C7 11.04 7 7.08 7 3 C4.69 3 2.38 3 0 3 C0 2.01 0 1.02 0 0 Z " fill="#C6D3D9" transform="translate(82,77)"/>
<path d="M0 0 C1.65 0 3.3 0 5 0 C6.31223496 3.93670488 5.24296256 6.12488144 4 10 C2.35 10 0.7 10 -1 10 C-0.67 6.7 -0.34 3.4 0 0 Z " fill="#FEFEFE" transform="translate(465,173)"/>
<path d="M0 0 C2.97 0 5.94 0 9 0 C9 0.33 9 0.66 9 1 C6.36 1 3.72 1 1 1 C3.83058441 4.44616782 5.31529844 5.87157411 9.76953125 6.70703125 C11.11634866 6.76615982 12.46443526 6.80088987 13.8125 6.8125 C14.85180664 6.85020508 14.85180664 6.85020508 15.91210938 6.88867188 C17.60747122 6.94713263 19.30379287 6.97653047 21 7 C21 7.33 21 7.66 21 8 C18.08234109 8.10806144 15.16868875 8.18732877 12.25 8.25 C11.425 8.28351563 10.6 8.31703125 9.75 8.3515625 C3.67239329 8.44958841 3.67239329 8.44958841 0.359375 6.234375 C-0.08921875 5.49703125 -0.5378125 4.7596875 -1 4 C-0.67 2.68 -0.34 1.36 0 0 Z " fill="#ECF0F2" transform="translate(86,58)"/>
<path d="M0 0 C0.66 0.33 1.32 0.66 2 1 C-0.64 4.3 -3.28 7.6 -6 11 C-7.32 10.34 -8.64 9.68 -10 9 C-7.12505529 5.01930733 -4.17882671 2.56428003 0 0 Z " fill="#35ADDA" transform="translate(111,206)"/>
<path d="M0 0 C2.31 0 4.62 0 7 0 C7.33 1.65 7.66 3.3 8 5 C4.71023192 6.09658936 3.28696233 5.79953138 0 5 C0 3.35 0 1.7 0 0 Z " fill="#468EAD" transform="translate(42,48)"/>
<path d="M0 0 C-0.3125 1.875 -0.3125 1.875 -1 4 C-4 6 -4 6 -6.1875 5.625 C-6.785625 5.41875 -7.38375 5.2125 -8 5 C-8 3.68 -8 2.36 -8 1 C-4.93251126 -0.86240388 -3.40254489 -1.2151946 0 0 Z " fill="#468EAD" transform="translate(173,46)"/>
<path d="M0 0 C1.67542976 0.28604898 3.34385343 0.61781233 5 1 C4.42655063 3.86724686 4.1385485 4.8614515 2 7 C-0.625 6.625 -0.625 6.625 -3 6 C-1.125 1.125 -1.125 1.125 0 0 Z " fill="#468EAD" transform="translate(163,38)"/>
<path d="M0 0 C2.375 0.1875 2.375 0.1875 5 1 C6.3125 3.5625 6.3125 3.5625 7 6 C6.01 6.66 5.02 7.32 4 8 C2.35 6.35 0.7 4.7 -1 3 C-0.67 2.01 -0.34 1.02 0 0 Z " fill="#468EAD" transform="translate(51,33)"/>
<path d="M0 0 C2.31 0.33 4.62 0.66 7 1 C7.33 2.65 7.66 4.3 8 6 C5.69 5.67 3.38 5.34 1 5 C0.67 3.35 0.34 1.7 0 0 Z " fill="#468EAD" transform="translate(45,40)"/>
<path d="M0 0 C1.65 0.33 3.3 0.66 5 1 C4.25 3.9375 4.25 3.9375 3 7 C0.875 7.875 0.875 7.875 -1 8 C-1.93065133 5.39417629 -2.14917407 4.35801776 -1.0625 1.75 C-0.711875 1.1725 -0.36125 0.595 0 0 Z " fill="#468EAD" transform="translate(156,33)"/>
<path d="M0 0 C1.65 0 3.3 0 5 0 C4.67 1.65 4.34 3.3 4 5 C2.35 4.67 0.7 4.34 -1 4 C-0.67 2.68 -0.34 1.36 0 0 Z " fill="#FEFEFE" transform="translate(610,155)"/>
<path d="M0 0 C1.65 0 3.3 0 5 0 C4.67 1.65 4.34 3.3 4 5 C2.35 4.67 0.7 4.34 -1 4 C-0.67 2.68 -0.34 1.36 0 0 Z " fill="#FEFEFE" transform="translate(572,155)"/>
<path d="M0 0 C0.33 0 0.66 0 1 0 C1.33 2.97 1.66 5.94 2 9 C1.01 9.66 0.02 10.32 -1 11 C-1.66 10.34 -2.32 9.68 -3 9 C-2.34 9 -1.68 9 -1 9 C-0.67 6.03 -0.34 3.06 0 0 Z " fill="#C5D2D9" transform="translate(109,71)"/>
</svg>
