<svg width="1190" height="968" viewBox="0 0 1190 968" fill="none" xmlns="http://www.w3.org/2000/svg">
<g opacity="0.6" clip-path="url(#clip0_157_54)">
<path d="M111.047 356.268C172.423 285.781 293.629 376.97 469.25 337.061C621.359 302.479 630.11 210.622 751.642 215.177C840.431 218.487 937.183 269.755 990.356 359.072C1049 457.551 1027.68 557.81 1021.7 582.139C994.983 691.263 915.698 748.826 887.728 768.487C772.488 849.44 643.173 835.254 581.135 828.479C348.1 802.957 98.6138 636.583 87.5052 455.701C86.0288 432.021 83.3419 388.098 111.047 356.268Z" fill="url(#paint0_linear_157_54)"/>
</g>
<g opacity="0.3">
<mask id="mask0_157_54" style="mask-type:alpha" maskUnits="userSpaceOnUse" x="1058" y="432" width="11" height="11">
<path d="M1063.23 442.425C1066.12 442.425 1068.46 440.091 1068.46 437.212C1068.46 434.334 1066.12 432 1063.23 432C1060.34 432 1058 434.334 1058 437.212C1058 440.091 1060.34 442.425 1063.23 442.425Z" fill="url(#paint1_linear_157_54)"/>
</mask>
<g mask="url(#mask0_157_54)">
<path d="M1063.23 442.425C1066.12 442.425 1068.46 440.091 1068.46 437.212C1068.46 434.334 1066.12 432 1063.23 432C1060.34 432 1058 434.334 1058 437.212C1058 440.091 1060.34 442.425 1063.23 442.425Z" fill="url(#paint2_linear_157_54)"/>
</g>
<mask id="mask1_157_54" style="mask-type:alpha" maskUnits="userSpaceOnUse" x="1088" y="432" width="11" height="11">
<path d="M1093.51 442.425C1096.4 442.425 1098.74 440.091 1098.74 437.212C1098.74 434.334 1096.4 432 1093.51 432C1090.62 432 1088.28 434.334 1088.28 437.212C1088.28 440.091 1090.62 442.425 1093.51 442.425Z" fill="url(#paint3_linear_157_54)"/>
</mask>
<g mask="url(#mask1_157_54)">
<path d="M1093.51 442.425C1096.4 442.425 1098.74 440.091 1098.74 437.212C1098.74 434.334 1096.4 432 1093.51 432C1090.62 432 1088.28 434.334 1088.28 437.212C1088.28 440.091 1090.62 442.425 1093.51 442.425Z" fill="url(#paint4_linear_157_54)"/>
</g>
<mask id="mask2_157_54" style="mask-type:alpha" maskUnits="userSpaceOnUse" x="1118" y="432" width="12" height="11">
<path d="M1123.79 442.425C1126.68 442.425 1129.02 440.091 1129.02 437.212C1129.02 434.334 1126.68 432 1123.79 432C1120.9 432 1118.56 434.334 1118.56 437.212C1118.56 440.091 1120.9 442.425 1123.79 442.425Z" fill="url(#paint5_linear_157_54)"/>
</mask>
<g mask="url(#mask2_157_54)">
<path d="M1123.79 442.425C1126.68 442.425 1129.02 440.091 1129.02 437.212C1129.02 434.334 1126.68 432 1123.79 432C1120.9 432 1118.56 434.334 1118.56 437.212C1118.56 440.091 1120.9 442.425 1123.79 442.425Z" fill="url(#paint6_linear_157_54)"/>
</g>
<mask id="mask3_157_54" style="mask-type:alpha" maskUnits="userSpaceOnUse" x="1148" y="432" width="12" height="11">
<path d="M1154.07 442.425C1156.96 442.425 1159.3 440.091 1159.3 437.212C1159.3 434.334 1156.96 432 1154.07 432C1151.18 432 1148.84 434.334 1148.84 437.212C1148.84 440.091 1151.18 442.425 1154.07 442.425Z" fill="url(#paint7_linear_157_54)"/>
</mask>
<g mask="url(#mask3_157_54)">
<path d="M1154.07 442.425C1156.96 442.425 1159.3 440.091 1159.3 437.212C1159.3 434.334 1156.96 432 1154.07 432C1151.18 432 1148.84 434.334 1148.84 437.212C1148.84 440.091 1151.18 442.425 1154.07 442.425Z" fill="url(#paint8_linear_157_54)"/>
</g>
<mask id="mask4_157_54" style="mask-type:alpha" maskUnits="userSpaceOnUse" x="1179" y="432" width="11" height="11">
<path d="M1184.35 442.425C1187.24 442.425 1189.58 440.091 1189.58 437.212C1189.58 434.334 1187.24 432 1184.35 432C1181.46 432 1179.12 434.334 1179.12 437.212C1179.12 440.091 1181.46 442.425 1184.35 442.425Z" fill="url(#paint9_linear_157_54)"/>
</mask>
<g mask="url(#mask4_157_54)">
<path d="M1184.35 442.425C1187.24 442.425 1189.58 440.091 1189.58 437.212C1189.58 434.334 1187.24 432 1184.35 432C1181.46 432 1179.12 434.334 1179.12 437.212C1179.12 440.091 1181.46 442.425 1184.35 442.425Z" fill="url(#paint10_linear_157_54)"/>
</g>
<mask id="mask5_157_54" style="mask-type:alpha" maskUnits="userSpaceOnUse" x="1058" y="458" width="11" height="11">
<path d="M1063.23 468.596C1066.12 468.596 1068.46 466.262 1068.46 463.383C1068.46 460.505 1066.12 458.171 1063.23 458.171C1060.34 458.171 1058 460.505 1058 463.383C1058 466.262 1060.34 468.596 1063.23 468.596Z" fill="url(#paint11_linear_157_54)"/>
</mask>
<g mask="url(#mask5_157_54)">
<path d="M1063.23 468.596C1066.12 468.596 1068.46 466.262 1068.46 463.383C1068.46 460.505 1066.12 458.171 1063.23 458.171C1060.34 458.171 1058 460.505 1058 463.383C1058 466.262 1060.34 468.596 1063.23 468.596Z" fill="url(#paint12_linear_157_54)"/>
</g>
<mask id="mask6_157_54" style="mask-type:alpha" maskUnits="userSpaceOnUse" x="1088" y="458" width="11" height="11">
<path d="M1093.51 468.596C1096.4 468.596 1098.74 466.262 1098.74 463.383C1098.74 460.505 1096.4 458.171 1093.51 458.171C1090.62 458.171 1088.28 460.505 1088.28 463.383C1088.28 466.262 1090.62 468.596 1093.51 468.596Z" fill="url(#paint13_linear_157_54)"/>
</mask>
<g mask="url(#mask6_157_54)">
<path d="M1093.51 468.596C1096.4 468.596 1098.74 466.262 1098.74 463.383C1098.74 460.505 1096.4 458.171 1093.51 458.171C1090.62 458.171 1088.28 460.505 1088.28 463.383C1088.28 466.262 1090.62 468.596 1093.51 468.596Z" fill="url(#paint14_linear_157_54)"/>
</g>
<mask id="mask7_157_54" style="mask-type:alpha" maskUnits="userSpaceOnUse" x="1118" y="458" width="12" height="11">
<path d="M1123.79 468.596C1126.68 468.596 1129.02 466.262 1129.02 463.383C1129.02 460.505 1126.68 458.171 1123.79 458.171C1120.9 458.171 1118.56 460.505 1118.56 463.383C1118.56 466.262 1120.9 468.596 1123.79 468.596Z" fill="url(#paint15_linear_157_54)"/>
</mask>
<g mask="url(#mask7_157_54)">
<path d="M1123.79 468.596C1126.68 468.596 1129.02 466.262 1129.02 463.383C1129.02 460.505 1126.68 458.171 1123.79 458.171C1120.9 458.171 1118.56 460.505 1118.56 463.383C1118.56 466.262 1120.9 468.596 1123.79 468.596Z" fill="url(#paint16_linear_157_54)"/>
</g>
<mask id="mask8_157_54" style="mask-type:alpha" maskUnits="userSpaceOnUse" x="1148" y="458" width="12" height="11">
<path d="M1154.07 468.596C1156.96 468.596 1159.3 466.262 1159.3 463.383C1159.3 460.505 1156.96 458.171 1154.07 458.171C1151.18 458.171 1148.84 460.505 1148.84 463.383C1148.84 466.262 1151.18 468.596 1154.07 468.596Z" fill="url(#paint17_linear_157_54)"/>
</mask>
<g mask="url(#mask8_157_54)">
<path d="M1154.07 468.596C1156.96 468.596 1159.3 466.262 1159.3 463.383C1159.3 460.505 1156.96 458.171 1154.07 458.171C1151.18 458.171 1148.84 460.505 1148.84 463.383C1148.84 466.262 1151.18 468.596 1154.07 468.596Z" fill="url(#paint18_linear_157_54)"/>
</g>
<mask id="mask9_157_54" style="mask-type:alpha" maskUnits="userSpaceOnUse" x="1179" y="458" width="11" height="11">
<path d="M1184.35 468.596C1187.24 468.596 1189.58 466.262 1189.58 463.383C1189.58 460.505 1187.24 458.171 1184.35 458.171C1181.46 458.171 1179.12 460.505 1179.12 463.383C1179.12 466.262 1181.46 468.596 1184.35 468.596Z" fill="url(#paint19_linear_157_54)"/>
</mask>
<g mask="url(#mask9_157_54)">
<path d="M1184.35 468.596C1187.24 468.596 1189.58 466.262 1189.58 463.383C1189.58 460.505 1187.24 458.171 1184.35 458.171C1181.46 458.171 1179.12 460.505 1179.12 463.383C1179.12 466.262 1181.46 468.596 1184.35 468.596Z" fill="url(#paint20_linear_157_54)"/>
</g>
<mask id="mask10_157_54" style="mask-type:alpha" maskUnits="userSpaceOnUse" x="1058" y="484" width="11" height="11">
<path d="M1063.23 494.712C1066.12 494.712 1068.46 492.379 1068.46 489.5C1068.46 486.621 1066.12 484.287 1063.23 484.287C1060.34 484.287 1058 486.621 1058 489.5C1058 492.379 1060.34 494.712 1063.23 494.712Z" fill="url(#paint21_linear_157_54)"/>
</mask>
<g mask="url(#mask10_157_54)">
<path d="M1063.23 494.712C1066.12 494.712 1068.46 492.379 1068.46 489.5C1068.46 486.621 1066.12 484.287 1063.23 484.287C1060.34 484.287 1058 486.621 1058 489.5C1058 492.379 1060.34 494.712 1063.23 494.712Z" fill="url(#paint22_linear_157_54)"/>
</g>
<mask id="mask11_157_54" style="mask-type:alpha" maskUnits="userSpaceOnUse" x="1088" y="484" width="11" height="11">
<path d="M1093.51 494.712C1096.4 494.712 1098.74 492.379 1098.74 489.5C1098.74 486.621 1096.4 484.287 1093.51 484.287C1090.62 484.287 1088.28 486.621 1088.28 489.5C1088.28 492.379 1090.62 494.712 1093.51 494.712Z" fill="url(#paint23_linear_157_54)"/>
</mask>
<g mask="url(#mask11_157_54)">
<path d="M1093.51 494.712C1096.4 494.712 1098.74 492.379 1098.74 489.5C1098.74 486.621 1096.4 484.287 1093.51 484.287C1090.62 484.287 1088.28 486.621 1088.28 489.5C1088.28 492.379 1090.62 494.712 1093.51 494.712Z" fill="url(#paint24_linear_157_54)"/>
</g>
<mask id="mask12_157_54" style="mask-type:alpha" maskUnits="userSpaceOnUse" x="1118" y="484" width="12" height="11">
<path d="M1123.79 494.712C1126.68 494.712 1129.02 492.379 1129.02 489.5C1129.02 486.621 1126.68 484.287 1123.79 484.287C1120.9 484.287 1118.56 486.621 1118.56 489.5C1118.56 492.379 1120.9 494.712 1123.79 494.712Z" fill="url(#paint25_linear_157_54)"/>
</mask>
<g mask="url(#mask12_157_54)">
<path d="M1123.79 494.712C1126.68 494.712 1129.02 492.379 1129.02 489.5C1129.02 486.621 1126.68 484.287 1123.79 484.287C1120.9 484.287 1118.56 486.621 1118.56 489.5C1118.56 492.379 1120.9 494.712 1123.79 494.712Z" fill="url(#paint26_linear_157_54)"/>
</g>
<mask id="mask13_157_54" style="mask-type:alpha" maskUnits="userSpaceOnUse" x="1148" y="484" width="12" height="11">
<path d="M1154.07 494.712C1156.96 494.712 1159.3 492.379 1159.3 489.5C1159.3 486.621 1156.96 484.287 1154.07 484.287C1151.18 484.287 1148.84 486.621 1148.84 489.5C1148.84 492.379 1151.18 494.712 1154.07 494.712Z" fill="url(#paint27_linear_157_54)"/>
</mask>
<g mask="url(#mask13_157_54)">
<path d="M1154.07 494.712C1156.96 494.712 1159.3 492.379 1159.3 489.5C1159.3 486.621 1156.96 484.287 1154.07 484.287C1151.18 484.287 1148.84 486.621 1148.84 489.5C1148.84 492.379 1151.18 494.712 1154.07 494.712Z" fill="url(#paint28_linear_157_54)"/>
</g>
<mask id="mask14_157_54" style="mask-type:alpha" maskUnits="userSpaceOnUse" x="1179" y="484" width="11" height="11">
<path d="M1184.35 494.712C1187.24 494.712 1189.58 492.379 1189.58 489.5C1189.58 486.621 1187.24 484.287 1184.35 484.287C1181.46 484.287 1179.12 486.621 1179.12 489.5C1179.12 492.379 1181.46 494.712 1184.35 494.712Z" fill="url(#paint29_linear_157_54)"/>
</mask>
<g mask="url(#mask14_157_54)">
<path d="M1184.35 494.712C1187.24 494.712 1189.58 492.379 1189.58 489.5C1189.58 486.621 1187.24 484.287 1184.35 484.287C1181.46 484.287 1179.12 486.621 1179.12 489.5C1179.12 492.379 1181.46 494.712 1184.35 494.712Z" fill="url(#paint30_linear_157_54)"/>
</g>
<mask id="mask15_157_54" style="mask-type:alpha" maskUnits="userSpaceOnUse" x="1058" y="510" width="11" height="11">
<path d="M1063.23 520.883C1066.12 520.883 1068.46 518.55 1068.46 515.671C1068.46 512.792 1066.12 510.458 1063.23 510.458C1060.34 510.458 1058 512.792 1058 515.671C1058 518.55 1060.34 520.883 1063.23 520.883Z" fill="url(#paint31_linear_157_54)"/>
</mask>
<g mask="url(#mask15_157_54)">
<path d="M1063.23 520.883C1066.12 520.883 1068.46 518.55 1068.46 515.671C1068.46 512.792 1066.12 510.458 1063.23 510.458C1060.34 510.458 1058 512.792 1058 515.671C1058 518.55 1060.34 520.883 1063.23 520.883Z" fill="url(#paint32_linear_157_54)"/>
</g>
<mask id="mask16_157_54" style="mask-type:alpha" maskUnits="userSpaceOnUse" x="1088" y="510" width="11" height="11">
<path d="M1093.51 520.883C1096.4 520.883 1098.74 518.55 1098.74 515.671C1098.74 512.792 1096.4 510.458 1093.51 510.458C1090.62 510.458 1088.28 512.792 1088.28 515.671C1088.28 518.55 1090.62 520.883 1093.51 520.883Z" fill="url(#paint33_linear_157_54)"/>
</mask>
<g mask="url(#mask16_157_54)">
<path d="M1093.51 520.883C1096.4 520.883 1098.74 518.55 1098.74 515.671C1098.74 512.792 1096.4 510.458 1093.51 510.458C1090.62 510.458 1088.28 512.792 1088.28 515.671C1088.28 518.55 1090.62 520.883 1093.51 520.883Z" fill="url(#paint34_linear_157_54)"/>
</g>
<mask id="mask17_157_54" style="mask-type:alpha" maskUnits="userSpaceOnUse" x="1118" y="510" width="12" height="11">
<path d="M1123.79 520.883C1126.68 520.883 1129.02 518.55 1129.02 515.671C1129.02 512.792 1126.68 510.458 1123.79 510.458C1120.9 510.458 1118.56 512.792 1118.56 515.671C1118.56 518.55 1120.9 520.883 1123.79 520.883Z" fill="url(#paint35_linear_157_54)"/>
</mask>
<g mask="url(#mask17_157_54)">
<path d="M1123.79 520.883C1126.68 520.883 1129.02 518.55 1129.02 515.671C1129.02 512.792 1126.68 510.458 1123.79 510.458C1120.9 510.458 1118.56 512.792 1118.56 515.671C1118.56 518.55 1120.9 520.883 1123.79 520.883Z" fill="url(#paint36_linear_157_54)"/>
</g>
<mask id="mask18_157_54" style="mask-type:alpha" maskUnits="userSpaceOnUse" x="1148" y="510" width="12" height="11">
<path d="M1154.07 520.883C1156.96 520.883 1159.3 518.55 1159.3 515.671C1159.3 512.792 1156.96 510.458 1154.07 510.458C1151.18 510.458 1148.84 512.792 1148.84 515.671C1148.84 518.55 1151.18 520.883 1154.07 520.883Z" fill="url(#paint37_linear_157_54)"/>
</mask>
<g mask="url(#mask18_157_54)">
<path d="M1154.07 520.883C1156.96 520.883 1159.3 518.55 1159.3 515.671C1159.3 512.792 1156.96 510.458 1154.07 510.458C1151.18 510.458 1148.84 512.792 1148.84 515.671C1148.84 518.55 1151.18 520.883 1154.07 520.883Z" fill="url(#paint38_linear_157_54)"/>
</g>
<mask id="mask19_157_54" style="mask-type:alpha" maskUnits="userSpaceOnUse" x="1179" y="510" width="11" height="11">
<path d="M1184.35 520.883C1187.24 520.883 1189.58 518.55 1189.58 515.671C1189.58 512.792 1187.24 510.458 1184.35 510.458C1181.46 510.458 1179.12 512.792 1179.12 515.671C1179.12 518.55 1181.46 520.883 1184.35 520.883Z" fill="url(#paint39_linear_157_54)"/>
</mask>
<g mask="url(#mask19_157_54)">
<path d="M1184.35 520.883C1187.24 520.883 1189.58 518.55 1189.58 515.671C1189.58 512.792 1187.24 510.458 1184.35 510.458C1181.46 510.458 1179.12 512.792 1179.12 515.671C1179.12 518.55 1181.46 520.883 1184.35 520.883Z" fill="url(#paint40_linear_157_54)"/>
</g>
<mask id="mask20_157_54" style="mask-type:alpha" maskUnits="userSpaceOnUse" x="1058" y="536" width="11" height="11">
<path d="M1063.23 547C1066.12 547 1068.46 544.666 1068.46 541.788C1068.46 538.909 1066.12 536.575 1063.23 536.575C1060.34 536.575 1058 538.909 1058 541.788C1058 544.666 1060.34 547 1063.23 547Z" fill="url(#paint41_linear_157_54)"/>
</mask>
<g mask="url(#mask20_157_54)">
<path d="M1063.23 547C1066.12 547 1068.46 544.666 1068.46 541.788C1068.46 538.909 1066.12 536.575 1063.23 536.575C1060.34 536.575 1058 538.909 1058 541.788C1058 544.666 1060.34 547 1063.23 547Z" fill="url(#paint42_linear_157_54)"/>
</g>
<mask id="mask21_157_54" style="mask-type:alpha" maskUnits="userSpaceOnUse" x="1088" y="536" width="11" height="11">
<path d="M1093.51 547C1096.4 547 1098.74 544.666 1098.74 541.788C1098.74 538.909 1096.4 536.575 1093.51 536.575C1090.62 536.575 1088.28 538.909 1088.28 541.788C1088.28 544.666 1090.62 547 1093.51 547Z" fill="url(#paint43_linear_157_54)"/>
</mask>
<g mask="url(#mask21_157_54)">
<path d="M1093.51 547C1096.4 547 1098.74 544.666 1098.74 541.788C1098.74 538.909 1096.4 536.575 1093.51 536.575C1090.62 536.575 1088.28 538.909 1088.28 541.788C1088.28 544.666 1090.62 547 1093.51 547Z" fill="url(#paint44_linear_157_54)"/>
</g>
<mask id="mask22_157_54" style="mask-type:alpha" maskUnits="userSpaceOnUse" x="1118" y="536" width="12" height="11">
<path d="M1123.79 547C1126.68 547 1129.02 544.666 1129.02 541.788C1129.02 538.909 1126.68 536.575 1123.79 536.575C1120.9 536.575 1118.56 538.909 1118.56 541.788C1118.56 544.666 1120.9 547 1123.79 547Z" fill="url(#paint45_linear_157_54)"/>
</mask>
<g mask="url(#mask22_157_54)">
<path d="M1123.79 547C1126.68 547 1129.02 544.666 1129.02 541.788C1129.02 538.909 1126.68 536.575 1123.79 536.575C1120.9 536.575 1118.56 538.909 1118.56 541.788C1118.56 544.666 1120.9 547 1123.79 547Z" fill="url(#paint46_linear_157_54)"/>
</g>
<mask id="mask23_157_54" style="mask-type:alpha" maskUnits="userSpaceOnUse" x="1148" y="536" width="12" height="11">
<path d="M1154.07 547C1156.96 547 1159.3 544.666 1159.3 541.788C1159.3 538.909 1156.96 536.575 1154.07 536.575C1151.18 536.575 1148.84 538.909 1148.84 541.788C1148.84 544.666 1151.18 547 1154.07 547Z" fill="url(#paint47_linear_157_54)"/>
</mask>
<g mask="url(#mask23_157_54)">
<path d="M1154.07 547C1156.96 547 1159.3 544.666 1159.3 541.788C1159.3 538.909 1156.96 536.575 1154.07 536.575C1151.18 536.575 1148.84 538.909 1148.84 541.788C1148.84 544.666 1151.18 547 1154.07 547Z" fill="url(#paint48_linear_157_54)"/>
</g>
<mask id="mask24_157_54" style="mask-type:alpha" maskUnits="userSpaceOnUse" x="1179" y="536" width="11" height="11">
<path d="M1184.35 547C1187.24 547 1189.58 544.666 1189.58 541.788C1189.58 538.909 1187.24 536.575 1184.35 536.575C1181.46 536.575 1179.12 538.909 1179.12 541.788C1179.12 544.666 1181.46 547 1184.35 547Z" fill="url(#paint49_linear_157_54)"/>
</mask>
<g mask="url(#mask24_157_54)">
<path d="M1184.35 547C1187.24 547 1189.58 544.666 1189.58 541.788C1189.58 538.909 1187.24 536.575 1184.35 536.575C1181.46 536.575 1179.12 538.909 1179.12 541.788C1179.12 544.666 1181.46 547 1184.35 547Z" fill="url(#paint50_linear_157_54)"/>
</g>
</g>
<defs>
<linearGradient id="paint0_linear_157_54" x1="695.823" y1="69.8268" x2="461.583" y2="775.635" gradientUnits="userSpaceOnUse">
<stop stop-color="#F3F7FF"/>
<stop offset="1" stop-color="#DEEEFE"/>
</linearGradient>
<linearGradient id="paint1_linear_157_54" x1="1113" y1="563.134" x2="1041.59" y2="381.33" gradientUnits="userSpaceOnUse">
<stop/>
<stop offset="1" stop-color="white"/>
</linearGradient>
<linearGradient id="paint2_linear_157_54" x1="1113" y1="563.134" x2="1041.59" y2="381.33" gradientUnits="userSpaceOnUse">
<stop stop-color="#97C3F9"/>
<stop offset="1" stop-color="#93C1F9"/>
</linearGradient>
<linearGradient id="paint3_linear_157_54" x1="1139.2" y1="552.843" x2="1067.8" y2="371.039" gradientUnits="userSpaceOnUse">
<stop/>
<stop offset="1" stop-color="white"/>
</linearGradient>
<linearGradient id="paint4_linear_157_54" x1="1139.2" y1="552.843" x2="1067.8" y2="371.039" gradientUnits="userSpaceOnUse">
<stop stop-color="#97C3F9"/>
<stop offset="1" stop-color="#93C1F9"/>
</linearGradient>
<linearGradient id="paint5_linear_157_54" x1="1165.4" y1="542.551" x2="1094" y2="360.747" gradientUnits="userSpaceOnUse">
<stop/>
<stop offset="1" stop-color="white"/>
</linearGradient>
<linearGradient id="paint6_linear_157_54" x1="1165.4" y1="542.551" x2="1094" y2="360.747" gradientUnits="userSpaceOnUse">
<stop stop-color="#97C3F9"/>
<stop offset="1" stop-color="#93C1F9"/>
</linearGradient>
<linearGradient id="paint7_linear_157_54" x1="1191.61" y1="532.259" x2="1120.21" y2="350.456" gradientUnits="userSpaceOnUse">
<stop/>
<stop offset="1" stop-color="white"/>
</linearGradient>
<linearGradient id="paint8_linear_157_54" x1="1191.61" y1="532.259" x2="1120.21" y2="350.456" gradientUnits="userSpaceOnUse">
<stop stop-color="#97C3F9"/>
<stop offset="1" stop-color="#93C1F9"/>
</linearGradient>
<linearGradient id="paint9_linear_157_54" x1="1217.81" y1="521.968" x2="1146.41" y2="340.164" gradientUnits="userSpaceOnUse">
<stop/>
<stop offset="1" stop-color="white"/>
</linearGradient>
<linearGradient id="paint10_linear_157_54" x1="1217.81" y1="521.968" x2="1146.41" y2="340.164" gradientUnits="userSpaceOnUse">
<stop stop-color="#97C3F9"/>
<stop offset="1" stop-color="#93C1F9"/>
</linearGradient>
<linearGradient id="paint11_linear_157_54" x1="1104.05" y1="566.645" x2="1032.65" y2="384.843" gradientUnits="userSpaceOnUse">
<stop/>
<stop offset="1" stop-color="white"/>
</linearGradient>
<linearGradient id="paint12_linear_157_54" x1="1104.05" y1="566.645" x2="1032.65" y2="384.843" gradientUnits="userSpaceOnUse">
<stop stop-color="#97C3F9"/>
<stop offset="1" stop-color="#93C1F9"/>
</linearGradient>
<linearGradient id="paint13_linear_157_54" x1="1130.26" y1="556.354" x2="1058.86" y2="374.551" gradientUnits="userSpaceOnUse">
<stop/>
<stop offset="1" stop-color="white"/>
</linearGradient>
<linearGradient id="paint14_linear_157_54" x1="1130.26" y1="556.354" x2="1058.86" y2="374.551" gradientUnits="userSpaceOnUse">
<stop stop-color="#97C3F9"/>
<stop offset="1" stop-color="#93C1F9"/>
</linearGradient>
<linearGradient id="paint15_linear_157_54" x1="1156.46" y1="546.062" x2="1085.06" y2="364.26" gradientUnits="userSpaceOnUse">
<stop/>
<stop offset="1" stop-color="white"/>
</linearGradient>
<linearGradient id="paint16_linear_157_54" x1="1156.46" y1="546.062" x2="1085.06" y2="364.26" gradientUnits="userSpaceOnUse">
<stop stop-color="#97C3F9"/>
<stop offset="1" stop-color="#93C1F9"/>
</linearGradient>
<linearGradient id="paint17_linear_157_54" x1="1182.67" y1="535.771" x2="1111.27" y2="353.968" gradientUnits="userSpaceOnUse">
<stop/>
<stop offset="1" stop-color="white"/>
</linearGradient>
<linearGradient id="paint18_linear_157_54" x1="1182.67" y1="535.771" x2="1111.27" y2="353.968" gradientUnits="userSpaceOnUse">
<stop stop-color="#97C3F9"/>
<stop offset="1" stop-color="#93C1F9"/>
</linearGradient>
<linearGradient id="paint19_linear_157_54" x1="1208.87" y1="525.479" x2="1137.47" y2="343.677" gradientUnits="userSpaceOnUse">
<stop/>
<stop offset="1" stop-color="white"/>
</linearGradient>
<linearGradient id="paint20_linear_157_54" x1="1208.87" y1="525.479" x2="1137.47" y2="343.677" gradientUnits="userSpaceOnUse">
<stop stop-color="#97C3F9"/>
<stop offset="1" stop-color="#93C1F9"/>
</linearGradient>
<linearGradient id="paint21_linear_157_54" x1="1095.11" y1="570.158" x2="1023.71" y2="388.354" gradientUnits="userSpaceOnUse">
<stop/>
<stop offset="1" stop-color="white"/>
</linearGradient>
<linearGradient id="paint22_linear_157_54" x1="1095.11" y1="570.158" x2="1023.71" y2="388.354" gradientUnits="userSpaceOnUse">
<stop stop-color="#97C3F9"/>
<stop offset="1" stop-color="#93C1F9"/>
</linearGradient>
<linearGradient id="paint23_linear_157_54" x1="1121.32" y1="559.866" x2="1049.91" y2="378.063" gradientUnits="userSpaceOnUse">
<stop/>
<stop offset="1" stop-color="white"/>
</linearGradient>
<linearGradient id="paint24_linear_157_54" x1="1121.32" y1="559.866" x2="1049.91" y2="378.063" gradientUnits="userSpaceOnUse">
<stop stop-color="#97C3F9"/>
<stop offset="1" stop-color="#93C1F9"/>
</linearGradient>
<linearGradient id="paint25_linear_157_54" x1="1147.52" y1="549.575" x2="1076.12" y2="367.771" gradientUnits="userSpaceOnUse">
<stop/>
<stop offset="1" stop-color="white"/>
</linearGradient>
<linearGradient id="paint26_linear_157_54" x1="1147.52" y1="549.575" x2="1076.12" y2="367.771" gradientUnits="userSpaceOnUse">
<stop stop-color="#97C3F9"/>
<stop offset="1" stop-color="#93C1F9"/>
</linearGradient>
<linearGradient id="paint27_linear_157_54" x1="1173.72" y1="539.283" x2="1102.32" y2="357.48" gradientUnits="userSpaceOnUse">
<stop/>
<stop offset="1" stop-color="white"/>
</linearGradient>
<linearGradient id="paint28_linear_157_54" x1="1173.72" y1="539.283" x2="1102.32" y2="357.48" gradientUnits="userSpaceOnUse">
<stop stop-color="#97C3F9"/>
<stop offset="1" stop-color="#93C1F9"/>
</linearGradient>
<linearGradient id="paint29_linear_157_54" x1="1199.93" y1="528.992" x2="1128.53" y2="347.188" gradientUnits="userSpaceOnUse">
<stop/>
<stop offset="1" stop-color="white"/>
</linearGradient>
<linearGradient id="paint30_linear_157_54" x1="1199.93" y1="528.992" x2="1128.53" y2="347.188" gradientUnits="userSpaceOnUse">
<stop stop-color="#97C3F9"/>
<stop offset="1" stop-color="#93C1F9"/>
</linearGradient>
<linearGradient id="paint31_linear_157_54" x1="1086.17" y1="573.67" x2="1014.77" y2="391.866" gradientUnits="userSpaceOnUse">
<stop/>
<stop offset="1" stop-color="white"/>
</linearGradient>
<linearGradient id="paint32_linear_157_54" x1="1086.17" y1="573.67" x2="1014.77" y2="391.866" gradientUnits="userSpaceOnUse">
<stop stop-color="#97C3F9"/>
<stop offset="1" stop-color="#93C1F9"/>
</linearGradient>
<linearGradient id="paint33_linear_157_54" x1="1112.37" y1="563.378" x2="1040.97" y2="381.575" gradientUnits="userSpaceOnUse">
<stop/>
<stop offset="1" stop-color="white"/>
</linearGradient>
<linearGradient id="paint34_linear_157_54" x1="1112.37" y1="563.378" x2="1040.97" y2="381.575" gradientUnits="userSpaceOnUse">
<stop stop-color="#97C3F9"/>
<stop offset="1" stop-color="#93C1F9"/>
</linearGradient>
<linearGradient id="paint35_linear_157_54" x1="1138.58" y1="553.087" x2="1067.18" y2="371.283" gradientUnits="userSpaceOnUse">
<stop/>
<stop offset="1" stop-color="white"/>
</linearGradient>
<linearGradient id="paint36_linear_157_54" x1="1138.58" y1="553.087" x2="1067.18" y2="371.283" gradientUnits="userSpaceOnUse">
<stop stop-color="#97C3F9"/>
<stop offset="1" stop-color="#93C1F9"/>
</linearGradient>
<linearGradient id="paint37_linear_157_54" x1="1164.78" y1="542.795" x2="1093.38" y2="360.992" gradientUnits="userSpaceOnUse">
<stop/>
<stop offset="1" stop-color="white"/>
</linearGradient>
<linearGradient id="paint38_linear_157_54" x1="1164.78" y1="542.795" x2="1093.38" y2="360.992" gradientUnits="userSpaceOnUse">
<stop stop-color="#97C3F9"/>
<stop offset="1" stop-color="#93C1F9"/>
</linearGradient>
<linearGradient id="paint39_linear_157_54" x1="1190.99" y1="532.504" x2="1119.58" y2="350.7" gradientUnits="userSpaceOnUse">
<stop/>
<stop offset="1" stop-color="white"/>
</linearGradient>
<linearGradient id="paint40_linear_157_54" x1="1190.99" y1="532.504" x2="1119.58" y2="350.7" gradientUnits="userSpaceOnUse">
<stop stop-color="#97C3F9"/>
<stop offset="1" stop-color="#93C1F9"/>
</linearGradient>
<linearGradient id="paint41_linear_157_54" x1="1077.23" y1="577.182" x2="1005.82" y2="395.378" gradientUnits="userSpaceOnUse">
<stop/>
<stop offset="1" stop-color="white"/>
</linearGradient>
<linearGradient id="paint42_linear_157_54" x1="1077.23" y1="577.182" x2="1005.82" y2="395.378" gradientUnits="userSpaceOnUse">
<stop stop-color="#97C3F9"/>
<stop offset="1" stop-color="#93C1F9"/>
</linearGradient>
<linearGradient id="paint43_linear_157_54" x1="1103.43" y1="566.89" x2="1032.03" y2="385.087" gradientUnits="userSpaceOnUse">
<stop/>
<stop offset="1" stop-color="white"/>
</linearGradient>
<linearGradient id="paint44_linear_157_54" x1="1103.43" y1="566.89" x2="1032.03" y2="385.087" gradientUnits="userSpaceOnUse">
<stop stop-color="#97C3F9"/>
<stop offset="1" stop-color="#93C1F9"/>
</linearGradient>
<linearGradient id="paint45_linear_157_54" x1="1129.64" y1="556.599" x2="1058.23" y2="374.795" gradientUnits="userSpaceOnUse">
<stop/>
<stop offset="1" stop-color="white"/>
</linearGradient>
<linearGradient id="paint46_linear_157_54" x1="1129.64" y1="556.599" x2="1058.23" y2="374.795" gradientUnits="userSpaceOnUse">
<stop stop-color="#97C3F9"/>
<stop offset="1" stop-color="#93C1F9"/>
</linearGradient>
<linearGradient id="paint47_linear_157_54" x1="1155.84" y1="546.307" x2="1084.44" y2="364.504" gradientUnits="userSpaceOnUse">
<stop/>
<stop offset="1" stop-color="white"/>
</linearGradient>
<linearGradient id="paint48_linear_157_54" x1="1155.84" y1="546.307" x2="1084.44" y2="364.504" gradientUnits="userSpaceOnUse">
<stop stop-color="#97C3F9"/>
<stop offset="1" stop-color="#93C1F9"/>
</linearGradient>
<linearGradient id="paint49_linear_157_54" x1="1182.04" y1="536.016" x2="1110.64" y2="354.212" gradientUnits="userSpaceOnUse">
<stop/>
<stop offset="1" stop-color="white"/>
</linearGradient>
<linearGradient id="paint50_linear_157_54" x1="1182.04" y1="536.016" x2="1110.64" y2="354.212" gradientUnits="userSpaceOnUse">
<stop stop-color="#97C3F9"/>
<stop offset="1" stop-color="#93C1F9"/>
</linearGradient>
<clipPath id="clip0_157_54">
<rect width="937.962" height="671.376" fill="white" transform="translate(245.578) rotate(21.4558)"/>
</clipPath>
</defs>
</svg>
